inDegrees=yes
name=ik_tiny_file
DataType=double
version=3
OpenSimVersion=4.4-2022-07-23-0e9fedc
endheader
time	pelvis_tilt	pelvis_list	pelvis_rotation	pelvis_tx	pelvis_ty	pelvis_tz	hip_flexion_r	hip_adduction_r	hip_rotation_r	knee_angle_r	knee_angle_r_beta	ankle_angle_r	subtalar_angle_r	mtp_angle_r	hip_flexion_l	hip_adduction_l	hip_rotation_l	knee_angle_l	knee_angle_l_beta	ankle_angle_l	subtalar_angle_l	mtp_angle_l	lumbar_extension	lumbar_bending	lumbar_rotation	arm_flex_r	arm_add_r	arm_rot_r	elbow_flex_r	pro_sup_r	wrist_flex_r	wrist_dev_r	arm_flex_l	arm_add_l	arm_rot_l	elbow_flex_l	pro_sup_l	wrist_flex_l	wrist_dev_l
9.119999999999999	85.28890299928318	-20.03539193295965	28.93679820684969	0	0.9399999999999999	0	43.98447473524083	-9.99992440974356	0	57.96865554136955	1.011743902151355	-4.965817104177788	0	0	43.98447473524083	-9.99992440974356	0	57.96865554136955	1.011743902151355	-4.965817104177788	0	0	-88.80996770726313	27.43178076247163	27.42102828634415	-41.69262984643635	0.8299871425677857	-34.96850569252016	64.84376863077622	44.99847736204869	0	5.000000117100384	5.742902212891535	-8.474826892153867	89.98952298041522	11.50095670884097	44.99847736204869	0	5.000000117100384
9.140000000000001	85.2960975806578	-20.01530215831312	28.90889749376745	0	0.9399999999999999	0	43.98500170635808	-9.99992454724563	0	57.96948110315189	1.011758310922635	-4.965841714573505	0	0	43.98500170635808	-9.99992454724563	0	57.96948110315189	1.011758310922635	-4.965841714573505	0	0	-88.90166369144336	27.36556551485051	27.34390431903573	-42.72937688242753	1.273696808795556	-34.77558397839702	64.69569667935114	44.9984795523881	0	5.000000117166346	5.755276016522484	-8.452262031309548	89.98947762502625	11.46330740894252	44.9984795523881	0	5.000000117166346
9.16	85.2872036568469	-20.01225084803584	28.85102146181712	0	0.9399999999999999	0	43.98536086010311	-9.999924640808281	0	57.9700440445371	1.011768136103303	-4.965858482442053	0	0	43.98536086010311	-9.999924640808281	0	57.9700440445371	1.011768136103303	-4.965858482442053	0	0	-89.02741573158374	27.30044374443879	27.28930948421508	-43.62874204826638	1.808098300896749	-34.7415115137503	64.55044430399685	44.99848104340993	0	5.000000117211163	5.874737140312069	-8.4435678275682	89.98944450558233	11.53688015683743	44.99848104340993	0	5.000000117211163
9.18	85.28799132557049	-20.04797697267768	28.82479121972654	0	0.9399999999999999	0	43.98588463038959	-9.999924777170188	0	57.97086476727294	1.011782460417289	-4.965882934835099	0	0	43.98588463038959	-9.999924777170188	0	57.97086476727294	1.011782460417289	-4.965882934835099	0	0	-89.13766511673705	27.25655597819171	27.317351016954	-44.6535407066024	2.694344747634318	-34.66753326279557	64.70988368748688	44.99848321700252	0	5.00000011727642	5.886277131210937	-8.446391328778375	89.98941891931433	11.41001064669756	44.99848321700252	0	5.00000011727642
9.199999999999999	85.22999203554882	-20.07583019370977	28.80018191301745	0	0.9399999999999999	0	43.98638003639963	-9.999924905994501	0	57.97164109104995	1.011796009823259	-4.965906058952959	0	0	43.98638003639963	-9.999924905994501	0	57.97164109104995	1.011796009823259	-4.965906058952959	0	0	-89.26379141949033	27.21971515431024	27.36843481256445	-45.43945287232022	3.27964538597236	-34.63409732988674	64.48585110013066	44.9984852711758	0	5.000000117337986	5.968857133311315	-8.409757135962172	89.98938005370813	11.31579126439728	44.9984852711758	0	5.000000117337986
9.220000000000001	85.13316222208712	-20.07637154776619	28.77094732561421	0	0.9399999999999999	0	43.98657563449301	-9.99992495668622	0	57.97194821212526	1.011801370097226	-4.965915181603015	0	0	43.98657563449301	-9.99992495668622	0	57.97194821212526	1.011801370097226	-4.965915181603015	0	0	-89.32478588346831	27.2125752616089	27.30444794138353	-46.04992478902987	3.44503630098421	-34.43393439404421	63.91353685617408	44.99848608005811	0	5.000000117362163	6.111111268973364	-8.376730013607402	89.98931015950573	11.36423378025354	44.99848608005811	0	5.000000117362163
9.24	85.06183310743805	-20.12738810654237	28.77018048460863	0	0.9399999999999999	0	43.98689230757225	-9.999925038810089	0	57.97244499076878	1.011810040520209	-4.965929954721756	0	0	43.98689230757225	-9.999925038810089	0	57.97244499076878	1.011810040520209	-4.965929954721756	0	0	-89.30919917730498	27.18886500594252	27.25663789381649	-46.66299337545779	3.423144172647004	-34.05093218094472	63.18128938022952	44.99848739042819	0	5.000000117401325	6.096158855220796	-8.440982577357047	89.989193156661	11.23555859660024	44.99848739042819	0	5.000000117401325
9.26	85.03607736431739	-20.15161520539326	28.74717965013384	0	0.9399999999999999	0	43.98725924618444	-9.999925133830766	0	57.97302098097533	1.011820093445772	-4.96594706749495	0	0	43.98725924618444	-9.999925133830766	0	57.97302098097533	1.011820093445772	-4.96594706749495	0	0	-89.26683149262752	27.10565209137938	27.10406775030987	-47.28317930013485	2.672840687094947	-33.48266548510133	62.12476739422452	44.99848890710603	0	5.000000117446586	5.885558871144249	-8.488424725200556	89.98911711079818	10.84969412143229	44.99848890710603	0	5.000000117446586
9.279999999999999	85.00785974310932	-20.17187906113985	28.71224936436094	0	0.9399999999999999	0	43.98758984380439	-9.99992521931051	0	57.97354025122682	1.011829156421369	-4.965962480546821	0	0	43.98758984380439	-9.99992521931051	0	57.97354025122682	1.011829156421369	-4.965962480546821	0	0	-89.23863282131325	27.03105745338776	26.91424660702853	-47.86008965290709	1.681706561040999	-33.01963033611023	61.10380260679818	44.99849027199448	0	5.00000011748726	5.761803129647929	-8.554641343561117	89.98908087563966	10.70017811914304	44.99849027199448	0	5.00000011748726
9.300000000000001	84.96253782863283	-20.17817531141615	28.69627572340503	0	0.9399999999999999	0	43.98789570428394	-9.999925298382868	0	57.97402043209625	1.011837537158545	-4.96597674118894	0	0	43.98789570428394	-9.999925298382868	0	57.97402043209625	1.011837537158545	-4.96597674118894	0	0	-89.26924259700419	27.02706714155869	26.78436060892785	-48.4841106835427	1.186963498466272	-32.53433987437838	60.39032885049525	44.99849153472953	0	5.00000011752486	5.87723826241844	-8.568353664016755	89.98905718243205	10.94458088530689	44.99849153472953	0	5.00000011752486
9.32	84.93249551305954	-20.19802649196979	28.69199747996048	0	0.9399999999999999	0	43.98824414689875	-9.999925388431002	0	57.9745673077827	1.011847081939873	-4.965992987149326	0	0	43.98824414689875	-9.999925388431002	0	57.9745673077827	1.011847081939873	-4.965992987149326	0	0	-89.32368737233556	27.01778422532252	26.74037330926458	-49.47431520334941	0.8706157428798907	-31.92627063956292	60.09565565892335	44.99849297296801	0	5.000000117567649	6.066517751651494	-8.608722933526046	89.98902354357607	11.24111330602204	44.99849297296801	0	5.000000117567649
9.34	84.8952158286685	-20.20785279255209	28.66154804138007	0	0.9399999999999999	0	43.98852314219065	-9.999925460437984	0	57.97500538659117	1.011854727857464	-4.966005991810829	0	0	43.98852314219065	-9.999925460437984	0	57.97500538659117	1.011854727857464	-4.966005991810829	0	0	-89.35431662674711	26.95046010109791	26.70805549214981	-50.41549419870793	0.5455667953146581	-31.38577078570009	59.6955062252263	44.99849412342994	0	5.000000117601828	6.137981228464233	-8.670021077297653	89.98892808670665	11.24230121116511	44.99849412342994	0	5.000000117601828
9.359999999999999	84.86674754541494	-20.22158868792499	28.67786211366473	0	0.9399999999999999	0	43.98892655500332	-9.999925564638575	0	57.97563805571927	1.011865770016825	-4.966024801751601	0	0	43.98892655500332	-9.999925564638575	0	57.97563805571927	1.011865770016825	-4.966024801751601	0	0	-89.31625150094001	26.89914747861151	26.64906748896673	-51.23826928137813	0.6718374806973382	-30.90011131732858	59.45940470096392	44.99849578817802	0	5.000000117651276	6.084139922085987	-8.73258293207077	89.98884548158065	11.11666781181339	44.99849578817802	0	5.000000117651276
9.380000000000001	84.81349521586556	-20.19051461032088	28.64932961445132	0	0.9399999999999999	0	44.00702392896538	-9.999930012485292	0	58.00406390507482	1.012361894680755	-4.966867522570815	0	0	44.00702392896538	-9.999930012485292	0	58.00406390507482	1.012361894680755	-4.966867522570815	0	0	-89.31914373459526	26.88903636087026	26.57390339722126	-51.84132953713328	1.766308681044044	-30.69232164163971	59.40170838978295	44.99856831859455	0	5.000000119596583	6.193862033632105	-8.687400675945613	89.98881731041254	11.2113425328813	44.99856831859455	0	5.000000119596583
9.4	84.78708944354855	-20.17922682709305	28.62500482881138	0	0.9399999999999999	0	44.02386021098592	-9.999933931618978	0	58.03059117116716	1.012824882815619	-4.967643586320695	0	0	44.02386021098592	-9.999933931618978	0	58.03059117116716	1.012824882815619	-4.967643586320695	0	0	-89.34588737353043	26.86625692322156	26.56421935241204	-52.34903005720238	3.09744278160422	-30.66192532327734	59.14406740968695	44.99863312762264	0	5.000000121233553	6.286929375374299	-8.651874278541536	89.9888213918134	11.29106277327428	44.99863312762264	0	5.000000121233553
9.42	84.81043116224713	-20.16230968895616	28.60619401160756	0	0.9399999999999999	0	44.04183362340503	-9.999937835127666	0	58.05906621722373	1.013321866123963	-4.968461080081067	0	0	44.04183362340503	-9.999937835127666	0	58.05906621722373	1.013321866123963	-4.968461080081067	0	0	-89.37710665696505	26.82378646654306	26.54453231561898	-53.11359916101311	4.709945468665128	-30.50873646016943	59.18757095079715	44.99869880275249	0	5.000000122779168	6.313254498713983	-8.639464376403327	89.98884431604441	11.29237062633667	44.99869880275249	0	5.000000122779168
9.44	84.82239065540857	-20.12235033758206	28.60255688622694	0	0.9399999999999999	0	44.05906095827827	-9.999941639324906	0	58.0862631003237	1.013796541280338	-4.969249913352636	0	0	44.05906095827827	-9.999941639324906	0	58.0862631003237	1.013796541280338	-4.969249913352636	0	0	-89.46067795957666	26.8214468369198	26.51276960819659	-53.56322997092464	5.759407008199514	-30.49786362098697	58.78990438196689	44.99876275803491	0	5.000000124278365	6.43612864284663	-8.649452208669247	89.98884178710426	11.46204682516025	44.99876275803491	0	5.000000124278365
9.460000000000001	84.79722884346684	-20.08238916454017	28.59699748661185	0	0.9399999999999999	0	44.07424223087909	-9.999944837990713	0	58.11013106698907	1.014213115884405	-4.969940539273196	0	0	44.07424223087909	-9.999944837990713	0	58.11013106698907	1.014213115884405	-4.969940539273196	0	0	-89.48441109833125	26.80014030955149	26.45050520395881	-53.90211821614859	6.565452042958852	-30.59517854141621	58.36941483206116	44.99881730363529	0	5.0000001254763	6.470397957675965	-8.61584168954975	89.98877616670269	11.46505636014938	44.99881730363529	0	5.0000001254763
9.48	84.79104762826533	-20.05853266749309	28.58544750904806	0	0.9399999999999999	0	44.07454693410157	-9.999944901649954	0	58.11061813448401	1.014221616815871	-4.969954267359168	0	0	44.07454693410157	-9.999944901649954	0	58.11061813448401	1.014221616815871	-4.969954267359168	0	0	-89.480172516229	26.80983213351494	26.39550983967088	-54.25823196448769	6.718654142531757	-30.42463609558481	57.58239116121272	44.99881838304301	0	5.000000125500993	6.452565341669617	-8.594743598703339	89.98871761608515	11.44517035327372	44.99881838304301	0	5.000000125500993
9.5	84.81775568546502	-20.06601851500159	28.5703468836838	0	0.9399999999999999	0	44.07490341191849	-9.999944976068715	0	58.11118796053929	1.014231562156699	-4.969970326370664	0	0	44.07490341191849	-9.999944976068715	0	58.11118796053929	1.014231562156699	-4.969970326370664	0	0	-89.47354872427336	26.80054529970034	26.32521732290622	-54.99090184318582	6.825657528799097	-30.0805131383695	57.08207885436269	44.99881964518908	0	5.000000125529831	6.29386400514159	-8.585428795779217	89.98870467730561	11.23274240206059	44.99881964518908	0	5.000000125529831
9.52	84.80824141873606	-20.06934811527415	28.52067094327068	0	0.9399999999999999	0	44.09417551731706	-9.999948645385951	0	58.14194541799964	1.014768381058925	-4.970830585222127	0	0	44.09417551731706	-9.999948645385951	0	58.14194541799964	1.014768381058925	-4.970830585222127	0	0	-89.42059675249051	26.77328367555737	26.20480339568998	-55.68960792376745	7.334744927668177	-29.84011631364269	56.59856794752624	44.99888384651936	0	5.000000126798612	6.097817242609392	-8.577289177857146	89.98869970219968	10.96624280040892	44.99888384651936	0	5.000000126798612
